<?xml version="1.0" encoding="UTF-8"?>
<!DOCTYPE svg PUBLIC "-//W3C//DTD SVG 1.1//EN" "http://www.w3.org/Graphics/SVG/1.1/DTD/svg11.dtd">
<svg xmlns="http://www.w3.org/2000/svg" version="1.1" width="1024px" height="1024px" style="shape-rendering:geometricPrecision; text-rendering:geometricPrecision; image-rendering:optimizeQuality; fill-rule:evenodd; clip-rule:evenodd" xmlns:xlink="http://www.w3.org/1999/xlink">
<g><path style="opacity:1" fill="#0c1f30" d="M -0.5,-0.5 C 340.833,-0.5 682.167,-0.5 1023.5,-0.5C 1023.5,340.833 1023.5,682.167 1023.5,1023.5C 682.167,1023.5 340.833,1023.5 -0.5,1023.5C -0.5,682.167 -0.5,340.833 -0.5,-0.5 Z"/></g>
<g><path style="opacity:1" fill="#d7ac60" d="M 628.5,226.5 C 627.683,227.777 629.683,228.11 634.5,227.5C 634.168,279.669 634.501,331.669 635.5,383.5C 635.5,385.167 635.5,386.833 635.5,388.5C 631.912,412.678 622.079,434.011 606,452.5C 584.919,473.441 561.753,491.608 536.5,507C 528.167,511.833 519.833,516.667 511.5,521.5C 484.336,506.49 458.669,489.323 434.5,470C 418.227,456.074 405.394,439.574 396,420.5C 392.083,410.498 389.583,400.164 388.5,389.5C 388.5,335.5 388.5,281.5 388.5,227.5C 396.5,227.167 396.5,226.833 388.5,226.5C 434.471,225.09 475.471,210.09 511.5,181.5C 545.543,209.294 584.543,224.294 628.5,226.5 Z"/></g>
<g><path style="opacity:1" fill="#0c1e30" d="M 606.5,239.5 C 611.573,239.726 616.239,240.726 620.5,242.5C 619.883,242.611 619.383,242.944 619,243.5C 618.172,272.072 618.338,300.572 619.5,329C 618.673,348.093 618.173,367.26 618,386.5C 617.295,391.024 616.462,395.524 615.5,400C 615.528,401.07 615.861,401.903 616.5,402.5C 610.483,421.688 600.15,438.188 585.5,452C 562.404,471.385 537.738,488.551 511.5,503.5C 480.384,486.889 452.218,466.222 427,441.5C 422.912,436.314 419.079,430.98 415.5,425.5C 416.239,425.631 416.906,425.464 417.5,425C 409.386,411.319 404.886,396.486 404,380.5C 403.5,334.501 403.333,288.501 403.5,242.5C 414.624,241.401 425.624,239.568 436.5,237C 435.552,236.517 434.552,236.351 433.5,236.5C 461.633,230.508 487.466,219.174 511,202.5C 539.688,222.753 571.521,235.087 606.5,239.5 Z"/></g>
<g><path style="opacity:1" fill="#010c27" d="M 620.5,242.5 C 620.5,288.833 620.5,335.167 620.5,381.5C 619.507,388.44 618.174,395.44 616.5,402.5C 615.861,401.903 615.528,401.07 615.5,400C 616.462,395.524 617.295,391.024 618,386.5C 618.173,367.26 618.673,348.093 619.5,329C 618.338,300.572 618.172,272.072 619,243.5C 619.383,242.944 619.883,242.611 620.5,242.5 Z"/></g>
<g><path style="opacity:1" fill="#e5c265" d="M 386.5,226.5 C 387.167,226.5 387.833,226.5 388.5,226.5C 396.5,226.833 396.5,227.167 388.5,227.5C 388.5,281.5 388.5,335.5 388.5,389.5C 388.167,389.5 387.833,389.5 387.5,389.5C 386.521,335.186 386.188,280.852 386.5,226.5 Z"/></g>
<g><path style="opacity:1" fill="#d7ab5f" d="M 568.5,405.5 C 567.668,372.336 567.168,339.003 567,305.5C 555.965,316.368 545.131,327.368 534.5,338.5C 527.14,345.528 519.807,352.528 512.5,359.5C 499.395,346.896 486.395,334.063 473.5,321C 472.906,320.536 472.239,320.369 471.5,320.5C 467.46,316.458 463.127,312.791 458.5,309.5C 457.833,308.5 457.167,307.5 456.5,306.5C 456.158,305.662 455.492,305.328 454.5,305.5C 453.502,337.996 453.168,370.662 453.5,403.5C 448.833,403.5 444.167,403.5 439.5,403.5C 439.333,357.499 439.5,311.499 440,265.5C 442.436,268.447 445.269,270.78 448.5,272.5C 468.938,293.438 489.605,314.272 510.5,335C 518.163,329.514 525.163,323.014 531.5,315.5C 549.415,299.087 566.915,282.087 584,264.5C 584.5,310.832 584.667,357.165 584.5,403.5C 579.5,403.5 574.5,403.5 569.5,403.5C 569.667,370.832 569.5,338.165 569,305.5C 568.5,338.832 568.333,372.165 568.5,405.5 Z"/></g>
<g><path style="opacity:1" fill="#030623" d="M 585.5,262.5 C 586.833,285.991 587.5,309.824 587.5,334C 587.333,357.833 587.167,381.667 587,405.5C 582,406.167 577,406.833 572,407.5C 570.601,407.499 569.101,407.165 567.5,406.5C 566.667,373.838 566.167,341.172 566,308.5C 555.913,319.091 545.413,329.091 534.5,338.5C 545.131,327.368 555.965,316.368 567,305.5C 567.168,339.003 567.668,372.336 568.5,405.5C 574.167,405.5 579.833,405.5 585.5,405.5C 585.5,357.833 585.5,310.167 585.5,262.5 Z"/></g>
<g><path style="opacity:1" fill="#f7cd67" d="M 440.5,264.5 C 443.5,266.833 446.167,269.5 448.5,272.5C 445.269,270.78 442.436,268.447 440,265.5C 439.5,311.499 439.333,357.499 439.5,403.5C 444.167,403.5 448.833,403.5 453.5,403.5C 453.168,370.662 453.502,337.996 454.5,305.5C 454.5,338.833 454.5,372.167 454.5,405.5C 448.833,405.5 443.167,405.5 437.5,405.5C 437.5,404.5 437.5,403.5 437.5,402.5C 437.835,356.324 438.835,310.324 440.5,264.5 Z"/></g>
<g><path style="opacity:1" fill="#000021" d="M 635.5,388.5 C 635.5,386.833 635.5,385.167 635.5,383.5C 635.5,382.167 635.5,380.833 635.5,379.5C 636.333,328.668 636.833,277.668 637,226.5C 637.667,278.833 637.667,331.167 637,383.5C 636.667,385.833 636.333,388.167 636,390.5C 635.536,389.906 635.369,389.239 635.5,388.5 Z"/></g>
<g><path style="opacity:1" fill="#07071f" d="M 433.5,236.5 C 434.552,236.351 435.552,236.517 436.5,237C 425.624,239.568 414.624,241.401 403.5,242.5C 403.333,288.501 403.5,334.501 404,380.5C 404.886,396.486 409.386,411.319 417.5,425C 416.906,425.464 416.239,425.631 415.5,425.5C 408.629,413.052 404.463,399.719 403,385.5C 402.5,337.168 402.333,288.834 402.5,240.5C 412.906,239.71 423.24,238.377 433.5,236.5 Z"/></g>
<g><path style="opacity:1" fill="#ecc466" d="M 606.5,239.5 C 611.657,238.789 616.99,238.789 622.5,239.5C 622.667,286.501 622.5,333.501 622,380.5C 621.331,387.47 620.831,387.804 620.5,381.5C 620.5,335.167 620.5,288.833 620.5,242.5C 616.239,240.726 611.573,239.726 606.5,239.5 Z"/></g>
<g><path style="opacity:1" fill="#ebce6a" d="M 471.5,320.5 C 472.239,320.369 472.906,320.536 473.5,321C 486.395,334.063 499.395,346.896 512.5,359.5C 512.103,360.525 511.437,360.692 510.5,360C 497.298,346.965 484.298,333.798 471.5,320.5 Z"/></g>
<g><path style="opacity:1" fill="#000123" d="M 386.5,226.5 C 386.188,280.852 386.521,335.186 387.5,389.5C 387.323,396.134 386.823,396.134 386,389.5C 385.825,373.926 385.325,358.426 384.5,343C 385.164,304.069 385.83,265.236 386.5,226.5 Z"/></g>
<g><path style="opacity:1" fill="#d9c066" d="M 437.5,261.5 C 438.833,262.167 439.833,263.167 440.5,264.5C 438.835,310.324 437.835,356.324 437.5,402.5C 437.5,355.5 437.5,308.5 437.5,261.5 Z"/></g>
<g><path style="opacity:1" fill="#fadf6e" d="M 628.5,226.5 C 630.833,226.5 633.167,226.5 635.5,226.5C 635.5,277.5 635.5,328.5 635.5,379.5C 635.5,380.833 635.5,382.167 635.5,383.5C 634.501,331.669 634.168,279.669 634.5,227.5C 629.683,228.11 627.683,227.777 628.5,226.5 Z"/></g>
<g><path style="opacity:1" fill="#895740" d="M 454.5,305.5 C 455.492,305.328 456.158,305.662 456.5,306.5C 455.833,339.5 455.167,372.5 454.5,405.5C 454.5,372.167 454.5,338.833 454.5,305.5 Z"/></g>
<g><path style="opacity:1" fill="#f7cc66" d="M 585.5,262.5 C 585.5,310.167 585.5,357.833 585.5,405.5C 579.833,405.5 574.167,405.5 568.5,405.5C 568.333,372.165 568.5,338.832 569,305.5C 569.5,338.165 569.667,370.832 569.5,403.5C 574.5,403.5 579.5,403.5 584.5,403.5C 584.667,357.165 584.5,310.832 584,264.5C 566.915,282.087 549.415,299.087 531.5,315.5C 549.167,296.827 567.167,279.16 585.5,262.5 Z"/></g>
<g><path style="opacity:1" fill="#000121" d="M 437.5,261.5 C 437.5,308.5 437.5,355.5 437.5,402.5C 437.5,403.5 437.5,404.5 437.5,405.5C 443.167,405.5 448.833,405.5 454.5,405.5C 455.167,372.5 455.833,339.5 456.5,306.5C 457.167,307.5 457.833,308.5 458.5,309.5C 456.672,341.484 455.839,373.818 456,406.5C 449.473,406.977 443.14,406.977 437,406.5C 436.168,357.998 436.335,309.665 437.5,261.5 Z"/></g>
<g><path style="opacity:1" fill="#d8ad60" d="M 506.5,378.5 C 520.983,377.482 527.483,384.149 526,398.5C 524.186,402.302 521.686,405.469 518.5,408C 520.613,418.684 522.613,429.351 524.5,440C 515.84,440.5 507.173,440.666 498.5,440.5C 499.624,430.09 501.291,419.756 503.5,409.5C 503.333,408.5 503.167,407.5 503,406.5C 492.147,395.642 493.313,386.309 506.5,378.5 Z"/></g>
<g><path style="opacity:1" fill="#eddcb8" d="M 690.5,612.5 C 689.739,605.905 686.072,602.072 679.5,601C 671.841,600.5 664.174,600.334 656.5,600.5C 656.5,611.167 656.5,621.833 656.5,632.5C 663.682,633.002 670.682,632.335 677.5,630.5C 680.213,627.941 682.213,624.941 683.5,621.5C 684.833,630.833 684.833,640.167 683.5,649.5C 682.258,646.862 680.591,644.529 678.5,642.5C 676.458,640.17 673.792,639.004 670.5,639C 665.845,638.501 661.179,638.334 656.5,638.5C 656.044,649.936 656.544,661.269 658,672.5C 659.996,674.059 662.329,674.726 665,674.5C 670.831,673.972 676.664,673.472 682.5,673C 684.641,672.427 686.641,671.594 688.5,670.5C 692.006,667.345 694.673,663.511 696.5,659C 697.725,658.437 698.725,658.77 699.5,660C 697.579,666.691 696.245,673.524 695.5,680.5C 675.167,680.5 654.833,680.5 634.5,680.5C 634.281,679.325 634.614,678.325 635.5,677.5C 638.337,676.669 640.504,675.002 642,672.5C 642.667,649.5 642.667,626.5 642,603.5C 639.994,600.328 637.494,597.662 634.5,595.5C 654.155,594.5 673.822,594.167 693.5,594.5C 693.435,601.524 693.768,608.524 694.5,615.5C 693.5,615.5 692.5,615.5 691.5,615.5C 691.737,614.209 691.404,613.209 690.5,612.5 Z"/></g>
<g><path style="opacity:1" fill="#f2dab3" d="M 721.5,675.5 C 722.5,673.5 723.5,671.5 724.5,669.5C 725.663,647.671 725.83,625.671 725,603.5C 724.285,600.359 722.452,598.359 719.5,597.5C 719.389,596.883 719.056,596.383 718.5,596C 725.192,595.169 731.858,595.336 738.5,596.5C 737.624,597.251 736.624,597.751 735.5,598C 737.929,598.451 738.096,599.285 736,600.5C 735.333,622.833 735.333,645.167 736,667.5C 736.519,672.019 738.686,675.519 742.5,678C 734.833,678.667 727.167,678.667 719.5,678C 720.381,677.292 721.047,676.458 721.5,675.5 Z"/></g>
<g><path style="opacity:1" fill="#f0ddb8" d="M 181.5,594.5 C 179.283,597.224 176.783,599.891 174,602.5C 174.779,624.178 176.112,645.845 178,667.5C 179.231,672.228 182.064,675.561 186.5,677.5C 176.554,679.475 166.221,680.142 155.5,679.5C 155.414,678.504 155.748,677.671 156.5,677C 162.194,674.625 164.861,670.291 164.5,664C 163.194,645.844 162.027,627.677 161,609.5C 151.5,632.5 142,655.5 132.5,678.5C 130.994,679.747 129.494,679.747 128,678.5C 125.198,672.586 122.698,666.586 120.5,660.5C 114.069,643.412 107.402,627.078 100.5,611.5C 98.9806,620.774 97.9806,630.107 97.5,639.5C 97.6641,636.813 97.4974,634.146 97,631.5C 96.6667,635.5 96.3333,639.5 96,643.5C 95.6667,642.5 95.3333,641.5 95,640.5C 94.6667,640.833 94.3333,641.167 94,641.5C 93.8186,628.828 93.8186,616.162 94,603.5C 92.1667,600.333 89.6667,597.833 86.5,596C 92.8333,595.333 99.1667,595.333 105.5,596C 110.914,607.239 115.748,618.739 120,630.5C 120.69,631.738 121.19,631.738 121.5,630.5C 125.554,639.808 129.721,649.141 134,658.5C 142.833,637.5 151.667,616.5 160.5,595.5C 167.468,594.503 174.468,594.17 181.5,594.5 Z"/></g>
<g><path style="opacity:1" fill="#efdcb7" d="M 928.5,594.5 C 929.112,601.535 929.112,608.535 928.5,615.5C 926.527,612.754 925.027,609.754 924,606.5C 922.457,604.622 920.624,603.122 918.5,602C 909.559,600.654 900.559,600.154 891.5,600.5C 891.5,611.167 891.5,621.833 891.5,632.5C 898.257,632.877 904.924,632.377 911.5,631C 914.892,628.715 916.559,625.548 916.5,621.5C 917.5,621.5 918.5,621.5 919.5,621.5C 919.5,630.833 919.5,640.167 919.5,649.5C 918.5,649.5 917.5,649.5 916.5,649.5C 916.655,644.977 914.655,641.811 910.5,640C 904.258,638.63 897.925,638.13 891.5,638.5C 891.333,649.505 891.5,660.505 892,671.5C 892.374,672.416 892.874,673.25 893.5,674C 902.947,674.895 912.281,674.229 921.5,672C 927.106,669.229 930.106,664.729 930.5,658.5C 931.5,658.5 932.5,658.5 933.5,658.5C 932.629,664.854 931.629,671.187 930.5,677.5C 910.4,679.47 890.066,680.137 869.5,679.5C 872.422,677.406 874.922,674.739 877,671.5C 877.667,649.167 877.667,626.833 877,604.5C 876.333,603.167 875.667,601.833 875,600.5C 872.704,598.943 870.538,597.276 868.5,595.5C 888.489,594.5 908.489,594.167 928.5,594.5 Z"/></g>
<g><path style="opacity:1" fill="#0b0f18" d="M 690.5,612.5 C 690.631,613.239 690.464,613.906 690,614.5C 689.024,609.204 686.191,605.371 681.5,603C 673.507,602.5 665.507,602.334 657.5,602.5C 657.5,612.167 657.5,621.833 657.5,631.5C 663.973,631.919 670.306,631.253 676.5,629.5C 677.107,629.624 677.44,629.957 677.5,630.5C 670.682,632.335 663.682,633.002 656.5,632.5C 656.5,621.833 656.5,611.167 656.5,600.5C 664.174,600.334 671.841,600.5 679.5,601C 686.072,602.072 689.739,605.905 690.5,612.5 Z"/></g>
<g><path style="opacity:1" fill="#070c16" d="M 928.5,594.5 C 929.992,600.617 930.992,606.951 931.5,613.5C 930.62,616.517 928.786,617.184 926,615.5C 925.254,610.838 923.087,607.005 919.5,604C 910.582,602.586 901.582,602.086 892.5,602.5C 892.5,612.167 892.5,621.833 892.5,631.5C 898.565,631.739 904.565,631.239 910.5,630C 908.216,628.637 908.049,627.137 910,625.5C 910.595,629.082 911.929,629.416 914,626.5C 914.346,624.782 914.846,623.115 915.5,621.5C 916.958,620.218 918.292,620.218 919.5,621.5C 918.5,621.5 917.5,621.5 916.5,621.5C 916.559,625.548 914.892,628.715 911.5,631C 904.924,632.377 898.257,632.877 891.5,632.5C 891.5,621.833 891.5,611.167 891.5,600.5C 900.559,600.154 909.559,600.654 918.5,602C 920.624,603.122 922.457,604.622 924,606.5C 925.027,609.754 926.527,612.754 928.5,615.5C 929.112,608.535 929.112,601.535 928.5,594.5 Z"/></g>
<g><path style="opacity:1" fill="#15202b" d="M 566.5,604.5 C 567.663,625.996 567.829,647.663 567,669.5C 566.209,670.745 565.709,672.078 565.5,673.5C 564.078,674.925 562.411,675.925 560.5,676.5C 559.761,676.631 559.094,676.464 558.5,676C 562,675.167 564.167,673 565,669.5C 565.168,647.663 565.668,625.996 566.5,604.5 Z"/></g>
<g><path style="opacity:1" fill="#0f0c11" d="M 187.5,677.5 C 187.167,677.5 186.833,677.5 186.5,677.5C 182.064,675.561 179.231,672.228 178,667.5C 176.112,645.845 174.779,624.178 174,602.5C 176.783,599.891 179.283,597.224 181.5,594.5C 175.013,593.672 168.346,593.172 161.5,593C 168.826,592.5 176.159,592.334 183.5,592.5C 183.5,594.5 183.5,596.5 183.5,598.5C 176.575,599.454 173.909,603.454 175.5,610.5C 176.501,629.177 177.667,647.844 179,666.5C 180.553,671.212 183.386,674.879 187.5,677.5 Z"/></g>
<g><path style="opacity:1" fill="#d9e2d4" d="M 427.5,595.5 C 413.014,595.542 398.348,595.709 383.5,596C 387.49,597.99 389.99,601.157 391,605.5C 391.667,627.167 391.667,648.833 391,670.5C 390.722,671.416 390.222,672.082 389.5,672.5C 389.667,649.498 389.5,626.498 389,603.5C 386.994,600.328 384.494,597.662 381.5,595.5C 396.867,594.198 412.2,594.198 427.5,595.5 Z"/></g>
<g><path style="opacity:1" fill="#01010b" d="M 481.5,594.5 C 480.022,594.238 478.689,594.571 477.5,595.5C 479.46,597.156 481.46,598.823 483.5,600.5C 484.95,601.85 485.617,603.516 485.5,605.5C 485.667,626.169 485.5,646.836 485,667.5C 484.667,646.5 484.333,625.5 484,604.5C 482.333,601.5 480,599.167 477,597.5C 476.333,596.167 476.333,594.833 477,593.5C 496.76,592.341 516.593,592.174 536.5,593C 517.995,593.168 499.662,593.668 481.5,594.5 Z"/></g>
<g><path style="opacity:1" fill="#f2ddb6" d="M 584.5,599.5 C 582.665,600.122 581.498,601.456 581,603.5C 580.333,625.5 580.333,647.5 581,669.5C 581.348,672.342 582.848,674.009 585.5,674.5C 590.975,675.829 597.808,675.829 606,674.5C 607.722,674.611 607.888,675.111 606.5,676C 604.5,676.333 602.5,676.667 600.5,677C 604.833,677.333 609.167,677.667 613.5,678C 596.167,678.667 578.833,678.667 561.5,678C 563.751,677.252 565.084,675.752 565.5,673.5C 565.709,672.078 566.209,670.745 567,669.5C 567.829,647.663 567.663,625.996 566.5,604.5C 566.291,603.078 565.791,601.745 565,600.5C 562.704,598.943 560.538,597.276 558.5,595.5C 568.5,594.167 578.5,594.167 588.5,595.5C 587.133,596.84 585.8,598.173 584.5,599.5 Z"/></g>
<g><path style="opacity:1" fill="#f2dfba" d="M 536.5,599.5 C 537.815,604.68 537.815,610.014 536.5,615.5C 534.671,611.842 532.838,608.176 531,604.5C 529.581,603.54 528.081,602.707 526.5,602C 517.582,600.586 508.582,600.086 499.5,600.5C 499.5,611.167 499.5,621.833 499.5,632.5C 505.509,632.666 511.509,632.499 517.5,632C 522.652,630.353 525.319,626.853 525.5,621.5C 526.5,621.5 527.5,621.5 528.5,621.5C 528.5,630.833 528.5,640.167 528.5,649.5C 527.5,649.5 526.5,649.5 525.5,649.5C 525.768,647.901 525.434,646.568 524.5,645.5C 523.746,642.909 522.079,641.076 519.5,640C 512.908,638.671 506.241,638.171 499.5,638.5C 499.334,648.172 499.5,657.839 500,667.5C 500.233,669.78 501.066,671.78 502.5,673.5C 512.829,675.384 522.829,674.384 532.5,670.5C 535.987,667.657 538.321,663.991 539.5,659.5C 540.274,658.289 541.107,658.289 542,659.5C 541.13,666.291 539.964,672.958 538.5,679.5C 538.649,678.448 538.483,677.448 538,676.5C 528.729,677.82 519.229,678.486 509.5,678.5C 500.167,678.333 490.833,678.167 481.5,678C 485.007,676.67 486.673,674.17 486.5,670.5C 487.663,648.337 487.83,626.004 487,603.5C 485.148,601.77 485.314,600.604 487.5,600C 484.705,598.964 482.038,597.631 479.5,596C 497.833,595.333 516.167,595.333 534.5,596C 535.085,597.302 535.751,598.469 536.5,599.5 Z"/></g>
<g><path style="opacity:1" fill="#040511" d="M 584.5,599.5 C 584.013,600.473 583.513,601.473 583,602.5C 582.333,625.5 582.333,648.5 583,671.5C 589.752,672.645 596.586,672.811 603.5,672C 606,671.625 608.333,670.792 610.5,669.5C 611.107,669.624 611.44,669.957 611.5,670.5C 603.265,674.064 594.598,675.397 585.5,674.5C 582.848,674.009 581.348,672.342 581,669.5C 580.333,647.5 580.333,625.5 581,603.5C 581.498,601.456 582.665,600.122 584.5,599.5 Z"/></g>
<g><path style="opacity:1" fill="#191412" d="M 100.5,611.5 C 100.5,612.5 100.5,613.5 100.5,614.5C 99.3035,633.82 98.8035,653.154 99,672.5C 100.645,674.662 102.812,675.995 105.5,676.5C 106.782,677.958 106.782,679.292 105.5,680.5C 105.5,679.5 105.5,678.5 105.5,677.5C 101.013,677.18 98.1801,674.847 97,670.5C 96.7155,660.165 96.8822,649.832 97.5,639.5C 97.9806,630.107 98.9806,620.774 100.5,611.5 Z"/></g>
<g><path style="opacity:1" fill="#100d0e" d="M 306.5,611.5 C 298.911,629.92 300.411,647.587 311,664.5C 317.373,672.066 325.373,675.066 335,673.5C 335.464,674.094 335.631,674.761 335.5,675.5C 319.964,676.143 309.464,669.143 304,654.5C 300.744,644.07 299.744,633.403 301,622.5C 301.81,618.213 303.643,614.546 306.5,611.5 Z"/></g>
<g><path style="opacity:1" fill="#0e1b25" d="M 439.5,598.5 C 435.501,597.5 431.501,596.5 427.5,595.5C 412.2,594.198 396.867,594.198 381.5,595.5C 384.494,597.662 386.994,600.328 389,603.5C 389.5,626.498 389.667,649.498 389.5,672.5C 387.463,674.53 385.13,676.196 382.5,677.5C 381.614,678.325 381.281,679.325 381.5,680.5C 395.171,680.667 408.837,680.5 422.5,680C 436.617,678.614 447.617,672.114 455.5,660.5C 453.164,665.349 449.831,669.516 445.5,673C 440.135,676.014 434.801,679.014 429.5,682C 433.449,682.807 433.449,683.307 429.5,683.5C 429.657,684.873 429.49,686.207 429,687.5C 427.632,685.973 427.132,684.473 427.5,683C 424.007,681.996 420.841,682.496 418,684.5C 417.044,683.106 415.711,682.439 414,682.5C 407.26,683.093 400.927,683.093 395,682.5C 394.833,682.833 394.667,683.167 394.5,683.5C 395.376,684.251 396.376,684.751 397.5,685C 396.333,685.5 395.5,686.333 395,687.5C 394,685.833 393,684.167 392,682.5C 390.68,682.799 389.18,682.966 387.5,683C 389.657,684.085 389.824,685.251 388,686.5C 387.333,685.167 386.667,683.833 386,682.5C 385.333,683.833 384.667,685.167 384,686.5C 382.333,683.833 380.667,683.833 379,686.5C 378.552,684.591 379.385,683.424 381.5,683C 379.888,682.28 378.388,682.446 377,683.5C 374.686,681.631 374.353,679.631 376,677.5C 376.423,678.956 377.256,679.456 378.5,679C 379.573,677.406 380.573,675.906 381.5,674.5C 381.291,673.914 380.957,673.414 380.5,673C 384.033,673.132 386.033,671.465 386.5,668C 385.289,667.213 384.289,666.546 383.5,666C 383.667,665.5 383.833,665 384,664.5C 384.667,665.833 385.333,665.833 386,664.5C 386.906,667.121 387.406,666.954 387.5,664C 387.333,663.167 387.167,662.333 387,661.5C 385.933,663.283 384.433,663.783 382.5,663C 384.886,662.716 385.552,661.716 384.5,660C 385.5,659.667 386.5,659.333 387.5,659C 384.583,656.831 384.083,654.331 386,651.5C 386.333,652.833 386.667,654.167 387,655.5C 387.667,649.5 387.667,643.5 387,637.5C 386.692,638.308 386.192,638.975 385.5,639.5C 384.646,638.478 383.646,637.645 382.5,637C 385.443,635.541 385.776,633.874 383.5,632C 384.642,628.712 385.975,625.545 387.5,622.5C 387.333,621.5 387.167,620.5 387,619.5C 387.09,623.539 385.923,624.206 383.5,621.5C 385.203,620.11 385.87,618.61 385.5,617C 384.5,616.667 383.5,616.333 382.5,616C 382.93,615.08 383.264,614.247 383.5,613.5C 384.192,614.025 384.692,614.692 385,615.5C 385.92,615.07 386.753,614.736 387.5,614.5C 386.335,613.416 385.002,612.583 383.5,612C 385.335,611.072 385.668,609.906 384.5,608.5C 387.967,602.1 385.967,598.6 378.5,598C 378.833,597.667 379.167,597.333 379.5,597C 378.833,595 378.167,593 377.5,591C 378.5,590.5 379.5,590 380.5,589.5C 382.882,591.071 385.549,591.904 388.5,592C 399.167,592.333 409.833,592.667 420.5,593C 427.38,593.354 433.714,595.187 439.5,598.5 Z"/></g>
<g><path style="opacity:1" fill="#f9f9df" d="M 719.5,597.5 C 722.452,598.359 724.285,600.359 725,603.5C 725.83,625.671 725.663,647.671 724.5,669.5C 724.667,647.831 724.5,626.164 724,604.5C 722.988,601.798 721.488,599.465 719.5,597.5 Z"/></g>
<g><path style="opacity:1" fill="#cdd6cc" d="M 771.5,600.5 C 773.776,600.756 774.943,602.09 775,604.5C 775.667,626.167 775.667,647.833 775,669.5C 774.623,670.942 773.79,671.942 772.5,672.5C 773.646,649.209 773.813,625.876 773,602.5C 772.283,601.956 771.783,601.289 771.5,600.5 Z"/></g>
<g><path style="opacity:1" fill="#c2b7a1" d="M 336.5,639.5 C 346.167,639.5 355.833,639.5 365.5,639.5C 365.737,640.791 365.404,641.791 364.5,642.5C 355.378,640.843 346.045,639.843 336.5,639.5 Z"/></g>
<g><path style="opacity:1" fill="#f0dcb6" d="M 427.5,595.5 C 431.501,596.5 435.501,597.5 439.5,598.5C 456.405,608.65 463.239,623.65 460,643.5C 458.964,649.31 457.464,654.977 455.5,660.5C 447.617,672.114 436.617,678.614 422.5,680C 408.837,680.5 395.171,680.667 381.5,680.5C 381.281,679.325 381.614,678.325 382.5,677.5C 385.13,676.196 387.463,674.53 389.5,672.5C 390.222,672.082 390.722,671.416 391,670.5C 391.667,648.833 391.667,627.167 391,605.5C 389.99,601.157 387.49,597.99 383.5,596C 398.348,595.709 413.014,595.542 427.5,595.5 Z"/></g>
<g><path style="opacity:1" fill="#e9eddb" d="M 431.5,604.5 C 438.818,607.741 443.318,613.408 445,621.5C 446.542,630.104 446.876,638.77 446,647.5C 445.768,648.737 445.268,649.737 444.5,650.5C 446.456,638.938 445.622,627.604 442,616.5C 440.629,613.734 438.796,611.401 436.5,609.5C 435.139,607.473 433.473,605.806 431.5,604.5 Z"/></g>
<g><path style="opacity:1" fill="#02030a" d="M 431.5,604.5 C 433.473,605.806 435.139,607.473 436.5,609.5C 426.868,603.056 416.201,600.723 404.5,602.5C 404.333,624.836 404.5,647.169 405,669.5C 405.318,671.061 406.151,672.228 407.5,673C 406.552,673.483 405.552,673.649 404.5,673.5C 403.51,649.241 403.177,624.908 403.5,600.5C 413.151,599.887 422.485,601.221 431.5,604.5 Z"/></g>
<g><path style="opacity:1" fill="#0d1f30" d="M 436.5,609.5 C 438.796,611.401 440.629,613.734 442,616.5C 445.622,627.604 446.456,638.938 444.5,650.5C 441.661,665.273 432.661,673.106 417.5,674C 412.98,674.814 408.646,674.647 404.5,673.5C 405.552,673.649 406.552,673.483 407.5,673C 406.151,672.228 405.318,671.061 405,669.5C 404.5,647.169 404.333,624.836 404.5,602.5C 416.201,600.723 426.868,603.056 436.5,609.5 Z"/></g>
<g><path style="opacity:1" fill="#f2dfba" d="M 851.5,594.5 C 851.586,595.496 851.252,596.329 850.5,597C 846.667,598.167 844.167,600.667 843,604.5C 842.5,630.165 842.333,655.831 842.5,681.5C 839.675,681.919 837.509,680.919 836,678.5C 818.684,655.36 800.851,632.693 782.5,610.5C 782.167,609.5 781.5,608.833 780.5,608.5C 779.337,629.329 779.171,650.329 780,671.5C 780.377,672.942 781.21,673.942 782.5,674.5C 784.05,675.441 785.716,676.107 787.5,676.5C 788.806,677.467 789.473,678.801 789.5,680.5C 781.167,680.5 772.833,680.5 764.5,680.5C 764.281,679.325 764.614,678.325 765.5,677.5C 768.43,676.547 770.763,674.88 772.5,672.5C 773.79,671.942 774.623,670.942 775,669.5C 775.667,647.833 775.667,626.167 775,604.5C 774.943,602.09 773.776,600.756 771.5,600.5C 769.531,598.841 767.531,597.175 765.5,595.5C 773.145,594.335 780.812,594.169 788.5,595C 803.972,615.439 819.805,635.606 836,655.5C 836.667,638.833 836.667,622.167 836,605.5C 833.974,600.976 830.807,597.643 826.5,595.5C 834.807,594.502 843.14,594.169 851.5,594.5 Z"/></g>
<g><path style="opacity:1" fill="#f6eccb" d="M 739.5,602.5 C 738.778,602.918 738.278,603.584 738,604.5C 737.333,625.833 737.333,647.167 738,668.5C 738.945,673.278 741.778,676.278 746.5,677.5C 746.5,678.167 746.5,678.833 746.5,679.5C 736.111,680.141 726.111,679.474 716.5,677.5C 718.167,676.833 719.833,676.167 721.5,675.5C 721.047,676.458 720.381,677.292 719.5,678C 727.167,678.667 734.833,678.667 742.5,678C 738.686,675.519 736.519,672.019 736,667.5C 735.333,645.167 735.333,622.833 736,600.5C 738.096,599.285 737.929,598.451 735.5,598C 736.624,597.751 737.624,597.251 738.5,596.5C 731.858,595.336 725.192,595.169 718.5,596C 719.056,596.383 719.389,596.883 719.5,597.5C 718.005,597.585 717.005,596.919 716.5,595.5C 726.144,594.502 735.81,594.168 745.5,594.5C 743.576,597.156 741.576,599.823 739.5,602.5 Z"/></g>
<g><path style="opacity:1" fill="#020410" d="M 739.5,602.5 C 739.333,625.502 739.5,648.502 740,671.5C 742.063,673.734 744.229,675.734 746.5,677.5C 741.778,676.278 738.945,673.278 738,668.5C 737.333,647.167 737.333,625.833 738,604.5C 738.278,603.584 738.778,602.918 739.5,602.5 Z"/></g>
<g><path style="opacity:1" fill="#1d1816" d="M 780.5,608.5 C 781.5,608.833 782.167,609.5 782.5,610.5C 782.333,630.836 782.5,651.169 783,671.5C 784.193,673.497 785.693,675.164 787.5,676.5C 785.716,676.107 784.05,675.441 782.5,674.5C 782.291,673.078 781.791,671.745 781,670.5C 780.5,649.836 780.333,629.169 780.5,608.5 Z"/></g>
<g><path style="opacity:1" fill="#e4e9d7" d="M 120.5,660.5 C 113.283,645.4 106.616,630.067 100.5,614.5C 100.5,613.5 100.5,612.5 100.5,611.5C 107.402,627.078 114.069,643.412 120.5,660.5 Z"/></g>
<g><path style="opacity:1" fill="#0e0e10" d="M 678.5,642.5 C 671.649,640.716 664.649,640.05 657.5,640.5C 657.334,650.172 657.5,659.839 658,669.5C 658.374,670.416 658.874,671.25 659.5,672C 666.167,672.667 672.833,672.667 679.5,672C 682.352,671.731 685.018,670.897 687.5,669.5C 688.107,669.624 688.44,669.957 688.5,670.5C 686.641,671.594 684.641,672.427 682.5,673C 676.664,673.472 670.831,673.972 665,674.5C 662.329,674.726 659.996,674.059 658,672.5C 656.544,661.269 656.044,649.936 656.5,638.5C 661.179,638.334 665.845,638.501 670.5,639C 673.792,639.004 676.458,640.17 678.5,642.5 Z"/></g>
<g><path style="opacity:1" fill="#f9f8e4" d="M 780.5,608.5 C 780.333,629.169 780.5,649.836 781,670.5C 781.791,671.745 782.291,673.078 782.5,674.5C 781.21,673.942 780.377,672.942 780,671.5C 779.171,650.329 779.337,629.329 780.5,608.5 Z"/></g>
<g><path style="opacity:1" fill="#efdcb8" d="M 280.5,679.5 C 269.116,680.144 258.116,679.477 247.5,677.5C 250.331,676.921 252.664,675.588 254.5,673.5C 255.629,671.372 255.796,669.039 255,666.5C 253.025,660.904 250.858,655.404 248.5,650C 238.833,649.333 229.167,649.333 219.5,650C 229.009,650.17 238.342,650.67 247.5,651.5C 238.143,651.168 228.81,651.502 219.5,652.5C 217.02,658.624 214.687,664.79 212.5,671C 213.368,674.701 215.702,676.867 219.5,677.5C 215.893,678.824 211.893,679.491 207.5,679.5C 203.107,679.491 199.107,678.824 195.5,677.5C 199.382,676.452 202.215,674.119 204,670.5C 214.402,645.126 224.902,619.793 235.5,594.5C 237.674,593.107 239.507,593.44 241,595.5C 250.226,621.184 260.226,646.517 271,671.5C 274.216,674.322 277.383,676.989 280.5,679.5 Z"/></g>
<g><path style="opacity:1" fill="#eff1df" d="M 254.5,673.5 C 253.345,665.706 251.012,658.373 247.5,651.5C 238.342,650.67 229.009,650.17 219.5,650C 229.167,649.333 238.833,649.333 248.5,650C 250.858,655.404 253.025,660.904 255,666.5C 255.796,669.039 255.629,671.372 254.5,673.5 Z"/></g>
<g><path style="opacity:1" fill="#918c7e" d="M 245.5,643.5 C 246.043,643.56 246.376,643.893 246.5,644.5C 238.343,645.82 230.343,645.82 222.5,644.5C 230.352,644.825 238.018,644.492 245.5,643.5 Z"/></g>
<g><path style="opacity:1" fill="#0f1d2b" d="M 245.5,643.5 C 238.018,644.492 230.352,644.825 222.5,644.5C 226.215,634.068 230.215,623.735 234.5,613.5C 238.564,623.36 242.231,633.36 245.5,643.5 Z"/></g>
<g><path style="opacity:1" fill="#f8f8e0" d="M 481.5,594.5 C 499.833,594.5 518.167,594.5 536.5,594.5C 536.5,596.167 536.5,597.833 536.5,599.5C 535.751,598.469 535.085,597.302 534.5,596C 516.167,595.333 497.833,595.333 479.5,596C 482.038,597.631 484.705,598.964 487.5,600C 485.314,600.604 485.148,601.77 487,603.5C 487.83,626.004 487.663,648.337 486.5,670.5C 486.831,648.66 486.497,626.994 485.5,605.5C 485.617,603.516 484.95,601.85 483.5,600.5C 481.46,598.823 479.46,597.156 477.5,595.5C 478.689,594.571 480.022,594.238 481.5,594.5 Z"/></g>
<g><path style="opacity:1" fill="#f0ddb9" d="M 306.5,611.5 C 303.643,614.546 301.81,618.213 301,622.5C 299.744,633.403 300.744,644.07 304,654.5C 309.464,669.143 319.964,676.143 335.5,675.5C 343.802,673.921 346.802,668.921 344.5,660.5C 346.188,652.213 343.354,646.213 336,642.5C 335.26,641.251 335.427,640.251 336.5,639.5C 346.045,639.843 355.378,640.843 364.5,642.5C 363.833,643.167 363.167,643.833 362.5,644.5C 360.112,645.219 358.612,646.885 358,649.5C 357.667,657.833 357.333,666.167 357,674.5C 343.901,681.457 330.068,683.29 315.5,680C 306.625,677.403 299.292,672.57 293.5,665.5C 278.996,641.586 281.996,620.086 302.5,601C 320.135,590.18 338.135,589.68 356.5,599.5C 357.497,606.468 357.83,613.468 357.5,620.5C 356.5,620.5 355.5,620.5 354.5,620.5C 349.278,602.883 337.612,596.05 319.5,600C 313.712,602.293 309.379,606.127 306.5,611.5 Z"/></g>
<g><path style="opacity:1" fill="#ebe7cd" d="M 121.5,630.5 C 121.19,631.738 120.69,631.738 120,630.5C 115.748,618.739 110.914,607.239 105.5,596C 99.1667,595.333 92.8333,595.333 86.5,596C 89.6667,597.833 92.1667,600.333 94,603.5C 93.8186,616.162 93.8186,628.828 94,641.5C 94.3333,641.167 94.6667,640.833 95,640.5C 95.3333,641.5 95.6667,642.5 96,643.5C 96.3333,639.5 96.6667,635.5 97,631.5C 97.4974,634.146 97.6641,636.813 97.5,639.5C 96.8822,649.832 96.7155,660.165 97,670.5C 98.1801,674.847 101.013,677.18 105.5,677.5C 105.5,678.5 105.5,679.5 105.5,680.5C 97.5,680.5 89.5,680.5 81.5,680.5C 81.2852,678.821 81.9519,677.821 83.5,677.5C 86.5287,675.628 88.6954,672.961 90,669.5C 91.5232,647.184 92.1898,624.85 92,602.5C 89.6244,599.955 87.1244,597.622 84.5,595.5C 92.1667,594.167 99.8333,594.167 107.5,595.5C 112.456,607.075 117.123,618.742 121.5,630.5 Z"/></g>
<g><path style="opacity:1" fill="#020717" d="M 851.5,594.5 C 852.573,595.251 852.74,596.251 852,597.5C 848.841,598.574 846.507,600.574 845,603.5C 844.667,629.167 844.333,654.833 844,680.5C 843.617,681.056 843.117,681.389 842.5,681.5C 842.333,655.831 842.5,630.165 843,604.5C 844.167,600.667 846.667,598.167 850.5,597C 851.252,596.329 851.586,595.496 851.5,594.5 Z"/></g>
<g><path style="opacity:1" fill="#f0dab3" d="M 83.5,677.5 C 87.3819,676.789 89.8819,674.456 91,670.5C 91.2068,661.369 92.2068,652.369 94,643.5C 95.2546,653.093 95.9212,662.76 96,672.5C 97.1667,675 99,676.833 101.5,678C 95.3188,678.819 89.3188,678.653 83.5,677.5 Z"/></g>
<g><path style="opacity:1" fill="#1f1d1d" d="M 524.5,645.5 C 524.649,646.552 524.483,647.552 524,648.5C 523.484,645.966 522.317,643.8 520.5,642C 514.258,640.63 507.925,640.13 501.5,640.5C 501.191,650.886 501.524,661.219 502.5,671.5C 511.183,672.703 519.849,672.537 528.5,671C 529.946,669.702 531.279,669.535 532.5,670.5C 522.829,674.384 512.829,675.384 502.5,673.5C 501.066,671.78 500.233,669.78 500,667.5C 499.5,657.839 499.334,648.172 499.5,638.5C 506.241,638.171 512.908,638.671 519.5,640C 522.079,641.076 523.746,642.909 524.5,645.5 Z"/></g>
<g><path style="opacity:1" fill="#eaddbc" d="M 618.5,679.5 C 598.576,680.487 578.576,680.821 558.5,680.5C 558.527,678.801 559.194,677.467 560.5,676.5C 562.411,675.925 564.078,674.925 565.5,673.5C 565.084,675.752 563.751,677.252 561.5,678C 578.833,678.667 596.167,678.667 613.5,678C 609.167,677.667 604.833,677.333 600.5,677C 602.5,676.667 604.5,676.333 606.5,676C 607.888,675.111 607.722,674.611 606,674.5C 597.808,675.829 590.975,675.829 585.5,674.5C 594.598,675.397 603.265,674.064 611.5,670.5C 615.096,667.643 617.429,663.976 618.5,659.5C 619.5,659.5 620.5,659.5 621.5,659.5C 620.067,666.098 619.067,672.764 618.5,679.5 Z"/></g>
<g><path style="opacity:1" fill="#e7e1c6" d="M 486.5,670.5 C 486.673,674.17 485.007,676.67 481.5,678C 490.833,678.167 500.167,678.333 509.5,678.5C 519.229,678.486 528.729,677.82 538,676.5C 538.483,677.448 538.649,678.448 538.5,679.5C 518.329,680.828 497.996,680.828 477.5,679.5C 478.779,677.854 480.445,676.687 482.5,676C 484.469,674.5 485.802,672.667 486.5,670.5 Z"/></g>
<g><path style="opacity:1" fill="#b5a183" d="M 186.5,677.5 C 186.833,677.5 187.167,677.5 187.5,677.5C 187.5,678.5 187.5,679.5 187.5,680.5C 176.654,680.828 165.987,680.494 155.5,679.5C 166.221,680.142 176.554,679.475 186.5,677.5 Z"/></g>
<g><path style="opacity:1" fill="#b5a183" d="M 195.5,677.5 C 199.107,678.824 203.107,679.491 207.5,679.5C 211.893,679.491 215.893,678.824 219.5,677.5C 220.404,678.209 220.737,679.209 220.5,680.5C 211.833,680.5 203.167,680.5 194.5,680.5C 194.263,679.209 194.596,678.209 195.5,677.5 Z"/></g>
<g><path style="opacity:1" fill="#b6a586" d="M 247.5,677.5 C 258.116,679.477 269.116,680.144 280.5,679.5C 269.346,680.495 258.012,680.828 246.5,680.5C 246.263,679.209 246.596,678.209 247.5,677.5 Z"/></g>
<g><path style="opacity:1" fill="#bfad8c" d="M 716.5,677.5 C 726.111,679.474 736.111,680.141 746.5,679.5C 736.347,680.494 726.014,680.828 715.5,680.5C 715.263,679.209 715.596,678.209 716.5,677.5 Z"/></g>
<g><path style="opacity:1" fill="#bfac89" d="M 930.5,677.5 C 930.5,678.5 930.5,679.5 930.5,680.5C 909.993,680.83 889.66,680.497 869.5,679.5C 890.066,680.137 910.4,679.47 930.5,677.5 Z"/></g>
<g><path style="opacity:1" fill="#0d0d15" d="M 362.5,644.5 C 361.496,645.683 360.662,647.016 360,648.5C 359.832,657.518 359.332,666.518 358.5,675.5C 334.66,688.243 312.827,685.576 293,667.5C 292.308,666.563 292.475,665.897 293.5,665.5C 299.292,672.57 306.625,677.403 315.5,680C 330.068,683.29 343.901,681.457 357,674.5C 357.333,666.167 357.667,657.833 358,649.5C 358.612,646.885 360.112,645.219 362.5,644.5 Z"/></g>
<g><path style="opacity:1" fill="#000001" d="M 618.5,679.5 C 608.856,680.832 598.856,681.499 588.5,681.5C 578.328,681.5 568.328,681.166 558.5,680.5C 578.576,680.821 598.576,680.487 618.5,679.5 Z"/></g>
<g><path style="opacity:1" fill="#010416" d="M 257.5,769.5 C 264.5,769.5 271.5,769.5 278.5,769.5C 278.5,767.833 278.5,766.167 278.5,764.5C 273.167,764.5 267.833,764.5 262.5,764.5C 262.5,753.167 262.5,741.833 262.5,730.5C 260.833,730.5 259.167,730.5 257.5,730.5C 256.262,730.19 256.262,729.69 257.5,729C 260.063,728.082 262.23,728.582 264,730.5C 264.5,741.495 264.667,752.495 264.5,763.5C 269.5,763.5 274.5,763.5 279.5,763.5C 279.768,766.119 279.435,768.619 278.5,771C 275,771.167 271.5,771.333 268,771.5C 264.098,771.488 260.598,770.821 257.5,769.5 Z"/></g>
<g><path style="opacity:1" fill="#e9dab8" d="M 339.5,730.5 C 348.167,730.5 356.833,730.5 365.5,730.5C 365.5,732.167 365.5,733.833 365.5,735.5C 362.167,735.5 358.833,735.5 355.5,735.5C 355.5,746.833 355.5,758.167 355.5,769.5C 353.5,769.5 351.5,769.5 349.5,769.5C 349.5,758.167 349.5,746.833 349.5,735.5C 346.167,735.5 342.833,735.5 339.5,735.5C 339.5,733.833 339.5,732.167 339.5,730.5 Z"/></g>
<g><path style="opacity:1" fill="#f8ecc7" d="M 383.5,730.5 C 385.167,730.5 386.833,730.5 388.5,730.5C 388.5,743.5 388.5,756.5 388.5,769.5C 386.833,769.5 385.167,769.5 383.5,769.5C 383.5,756.5 383.5,743.5 383.5,730.5 Z"/></g>
<g><path style="opacity:1" fill="#ebe2c7" d="M 762.5,760.5 C 761.833,751.325 761.167,741.991 760.5,732.5C 759.668,741.148 759.168,749.814 759,758.5C 758.351,761.647 756.518,763.647 753.5,764.5C 755.596,762.567 757.096,760.233 758,757.5C 758.5,748.506 758.666,739.506 758.5,730.5C 760.167,730.5 761.833,730.5 763.5,730.5C 763.807,740.582 763.474,750.582 762.5,760.5 Z"/></g>
<g><path style="opacity:1" fill="#ebdebe" d="M 692.5,729.5 C 712.362,730.223 719.862,740.223 715,759.5C 707.045,770.697 696.879,773.197 684.5,767C 673.606,755.311 673.939,743.977 685.5,733C 687.925,731.787 690.259,730.621 692.5,729.5 Z"/></g>
<g><path style="opacity:1" fill="#0d1d2b" d="M 691.5,735.5 C 706.097,734.357 712.263,741.024 710,755.5C 704.718,764.83 697.218,766.996 687.5,762C 679.8,751.761 681.133,742.928 691.5,735.5 Z"/></g>
<g><path style="opacity:1" fill="#ede0c0" d="M 444.5,740.5 C 449.229,757.736 442.896,767.736 425.5,770.5C 415.035,769.365 408.702,763.699 406.5,753.5C 406.579,735.252 415.579,727.752 433.5,731C 437.975,733.314 441.642,736.48 444.5,740.5 Z"/></g>
<g><path style="opacity:1" fill="#eadbba" d="M 834.5,729.5 C 840.303,728.99 845.303,730.656 849.5,734.5C 848.076,739.211 845.743,739.711 842.5,736C 838.683,734.977 835.183,735.477 832,737.5C 831.161,740.14 831.661,742.473 833.5,744.5C 836.966,746.489 840.632,747.989 844.5,749C 850.602,753.105 852.102,758.605 849,765.5C 844.377,770.021 838.877,771.521 832.5,770C 828.837,769.155 825.837,767.322 823.5,764.5C 823.977,763.069 824.643,761.736 825.5,760.5C 830.569,764.92 836.236,766.086 842.5,764C 846.598,760.351 846.265,757.018 841.5,754C 835.072,752.711 829.905,749.544 826,744.5C 824.204,736.749 827.037,731.749 834.5,729.5 Z"/></g>
<g><path style="opacity:1" fill="#ebdebd" d="M 166.5,730.5 C 170.514,730.334 174.514,730.501 178.5,731C 180.869,731.536 182.869,732.703 184.5,734.5C 183.076,739.211 180.743,739.711 177.5,736C 174.5,735.333 171.5,735.333 168.5,736C 164.98,738.237 164.647,740.904 167.5,744C 172.5,746.333 177.5,748.667 182.5,751C 187.876,759.653 185.876,765.986 176.5,770C 170.774,771.104 165.44,770.104 160.5,767C 157.92,764.88 157.92,762.713 160.5,760.5C 166.353,764.864 172.519,765.531 179,762.5C 179.667,760.5 179.667,758.5 179,756.5C 174.398,753.627 169.564,751.127 164.5,749C 158.721,742.067 159.388,735.901 166.5,730.5 Z"/></g>
<g><path style="opacity:1" fill="#0e1c29" d="M 421.5,735.5 C 430.693,734.176 436.859,737.843 440,746.5C 440.447,760.052 433.947,765.885 420.5,764C 413.114,759.523 410.614,753.023 413,744.5C 414.688,740.315 417.521,737.315 421.5,735.5 Z"/></g>
<g><path style="opacity:1" fill="#f1e5c4" d="M 782.5,730.5 C 788.925,730.13 795.258,730.63 801.5,732C 810.31,738.887 810.643,746.22 802.5,754C 797.628,755.388 792.628,755.888 787.5,755.5C 787.5,760.167 787.5,764.833 787.5,769.5C 785.833,769.5 784.167,769.5 782.5,769.5C 782.5,756.5 782.5,743.5 782.5,730.5 Z"/></g>
<g><path style="opacity:1" fill="#161e28" d="M 787.5,735.5 C 791.637,735.146 795.637,735.646 799.5,737C 801.523,740.183 802.023,743.683 801,747.5C 800.167,748.333 799.333,749.167 798.5,750C 794.848,750.499 791.182,750.665 787.5,750.5C 787.5,745.5 787.5,740.5 787.5,735.5 Z"/></g>
<g><path style="opacity:1" fill="#f1e3bf" d="M 463.5,730.5 C 466.785,730.269 469.285,731.603 471,734.5C 476.953,742.788 483.286,750.788 490,758.5C 490.5,749.173 490.666,739.839 490.5,730.5C 492.167,730.5 493.833,730.5 495.5,730.5C 495.5,743.5 495.5,756.5 495.5,769.5C 493.533,769.739 491.699,769.406 490,768.5C 483,759.5 476,750.5 469,741.5C 468.5,750.827 468.334,760.161 468.5,769.5C 466.833,769.5 465.167,769.5 463.5,769.5C 463.5,756.5 463.5,743.5 463.5,730.5 Z"/></g>
<g><path style="opacity:1" fill="#ede0bf" d="M 523.5,729.5 C 529.303,728.99 534.303,730.656 538.5,734.5C 537.401,739.13 535.401,739.63 532.5,736C 529.167,735.333 525.833,735.333 522.5,736C 519.689,739.294 520.022,742.294 523.5,745C 529.339,746.715 534.506,749.548 539,753.5C 541.646,761.547 539.146,767.047 531.5,770C 525.774,771.104 520.44,770.104 515.5,767C 512.881,764.743 512.881,762.577 515.5,760.5C 520.428,765.31 526.095,766.477 532.5,764C 535.167,761 535.167,758 532.5,755C 525.032,753.525 519.198,749.691 515,743.5C 514.022,736.447 516.856,731.78 523.5,729.5 Z"/></g>
<g><path style="opacity:1" fill="#ecdfbe" d="M 213.5,730.5 C 226.792,727.89 235.625,732.89 240,745.5C 241.546,757.908 236.379,766.075 224.5,770C 213.127,771.566 205.293,767.066 201,756.5C 198.519,744.466 202.686,735.799 213.5,730.5 Z"/></g>
<g><path style="opacity:1" fill="#0e1d2a" d="M 215.5,735.5 C 228.982,734.814 235.149,741.148 234,754.5C 230.426,763.369 223.926,766.536 214.5,764C 207.156,759.464 204.656,752.964 207,744.5C 208.688,740.315 211.521,737.315 215.5,735.5 Z"/></g>
<g><path style="opacity:1" fill="#e9dcbb" d="M 293.5,730.5 C 295.5,730.5 297.5,730.5 299.5,730.5C 299.334,740.506 299.5,750.506 300,760.5C 304.47,764.837 309.637,765.67 315.5,763C 316.717,761.352 317.55,759.519 318,757.5C 318.5,748.506 318.666,739.506 318.5,730.5C 320.167,730.5 321.833,730.5 323.5,730.5C 323.666,740.839 323.5,751.172 323,761.5C 320.073,767.389 315.24,770.389 308.5,770.5C 302.794,770.398 298.294,768.064 295,763.5C 293.594,752.564 293.094,741.564 293.5,730.5 Z"/></g>
<g><path style="opacity:1" fill="#eadfc1" d="M 592.5,730.5 C 597.179,730.334 601.845,730.501 606.5,731C 609.621,731.726 612.287,733.226 614.5,735.5C 613.5,736.833 612.5,738.167 611.5,739.5C 604.825,734.818 597.825,734.318 590.5,738C 584.92,744.546 584.087,751.713 588,759.5C 589.543,761.378 591.376,762.878 593.5,764C 597.5,764.667 601.5,764.667 605.5,764C 609.135,761.904 611.135,758.737 611.5,754.5C 608.167,754.5 604.833,754.5 601.5,754.5C 601.5,752.833 601.5,751.167 601.5,749.5C 606.833,749.5 612.167,749.5 617.5,749.5C 617.919,762.077 611.919,769.077 599.5,770.5C 584.114,768.603 577.614,759.936 580,744.5C 581.926,737.745 586.093,733.078 592.5,730.5 Z"/></g>
<g><path style="opacity:1" fill="#eeddb9" d="M 753.5,764.5 C 756.518,763.647 758.351,761.647 759,758.5C 759.168,749.814 759.668,741.148 760.5,732.5C 761.167,741.991 761.833,751.325 762.5,760.5C 760.982,765.517 757.648,768.684 752.5,770C 745.614,771.323 739.781,769.49 735,764.5C 733.544,753.269 733.044,741.936 733.5,730.5C 735.167,730.5 736.833,730.5 738.5,730.5C 738.334,740.172 738.5,749.839 739,759.5C 739.785,761.286 740.951,762.786 742.5,764C 746.152,764.499 749.818,764.665 753.5,764.5 Z"/></g>
<g><path style="opacity:1" fill="#f1e5c4" d="M 634.5,730.5 C 640.509,730.334 646.509,730.501 652.5,731C 659.974,734.12 662.474,739.62 660,747.5C 657.985,750.093 655.485,752.093 652.5,753.5C 655.833,758.5 659.167,763.5 662.5,768.5C 660.167,769.833 657.833,769.833 655.5,768.5C 652.833,764.167 650.167,759.833 647.5,755.5C 644.914,754.52 642.247,754.187 639.5,754.5C 639.5,759.5 639.5,764.5 639.5,769.5C 637.833,769.5 636.167,769.5 634.5,769.5C 634.5,756.5 634.5,743.5 634.5,730.5 Z"/></g>
<g><path style="opacity:1" fill="#16202c" d="M 639.5,735.5 C 643.182,735.335 646.848,735.501 650.5,736C 653.683,737.018 655.016,739.185 654.5,742.5C 655.016,745.815 653.683,747.982 650.5,749C 646.848,749.499 643.182,749.665 639.5,749.5C 639.5,744.833 639.5,740.167 639.5,735.5 Z"/></g>
<g><path style="opacity:1" fill="#f4eac5" d="M 257.5,730.5 C 259.167,730.5 260.833,730.5 262.5,730.5C 262.5,741.833 262.5,753.167 262.5,764.5C 267.833,764.5 273.167,764.5 278.5,764.5C 278.5,766.167 278.5,767.833 278.5,769.5C 271.5,769.5 264.5,769.5 257.5,769.5C 257.5,756.5 257.5,743.5 257.5,730.5 Z"/></g>
<g><path style="opacity:1" fill="#0e0f14" d="M 444.5,740.5 C 445.117,740.611 445.617,740.944 446,741.5C 448.156,747.591 447.989,753.591 445.5,759.5C 445.608,760.442 445.941,761.275 446.5,762C 442.5,764.667 438.5,767.333 434.5,770C 417.398,774.288 407.398,767.788 404.5,750.5C 404.667,748.833 404.833,747.167 405,745.5C 405.183,748.365 405.683,751.031 406.5,753.5C 408.702,763.699 415.035,769.365 425.5,770.5C 442.896,767.736 449.229,757.736 444.5,740.5 Z"/></g>
</svg>
